<svg width="62" height="64" viewBox="0 0 62 64" fill="none" xmlns="http://www.w3.org/2000/svg">
<path fill-rule="evenodd" clip-rule="evenodd" d="M9.13813 16.5708L27.6006 7.71144C28.6619 7.20358 29.8235 6.93996 31 6.93996C32.1765 6.93996 33.3381 7.20358 34.3994 7.71144L52.8619 16.5708C53.5203 16.8888 54.0759 17.3856 54.4651 18.0046C54.8543 18.6236 55.0613 19.3397 55.0625 20.0708V22.2496C55.0622 28.5257 53.4828 34.7008 50.4697 40.2063C47.4567 45.7118 43.1068 50.3707 37.8206 53.7539L33.5069 56.5146C32.7591 56.9951 31.8889 57.2505 31 57.2505C30.1111 57.2505 29.2409 56.9951 28.4931 56.5146L24.1794 53.7583C18.8926 50.3747 14.5423 45.7151 11.5292 40.2088C8.51608 34.7024 6.93703 28.5264 6.9375 22.2496V20.0708C6.9375 18.5789 7.795 17.2183 9.13813 16.5708ZM24.7569 1.79644L6.29875 10.6558C4.52551 11.5088 3.02893 12.8448 1.98104 14.5103C0.933147 16.1757 0.376473 18.1031 0.375 20.0708V22.2496C0.374634 29.6271 2.23062 36.8861 5.77202 43.358C9.31343 49.8299 14.4264 55.3067 20.64 59.2839L24.9538 62.0402C26.7581 63.1973 28.8565 63.8124 31 63.8124C33.1435 63.8124 35.2419 63.1973 37.0462 62.0402L41.36 59.2839C47.5736 55.3067 52.6866 49.8299 56.228 43.358C59.7694 36.8861 61.6254 29.6271 61.625 22.2496V20.0708C61.625 16.0546 59.3237 12.3927 55.7012 10.6558L37.2387 1.79644C35.2913 0.863311 33.1594 0.378906 31 0.378906C28.8406 0.378906 26.7043 0.863311 24.7569 1.79644ZM44.5625 24.2183C44.821 23.8736 45.0091 23.4813 45.1161 23.0639C45.223 22.6465 45.2467 22.2121 45.1858 21.7855C45.1248 21.359 44.9805 20.9486 44.7609 20.5778C44.5414 20.207 44.251 19.8831 43.9062 19.6246C43.5615 19.366 43.1693 19.1779 42.7518 19.071C42.3344 18.964 41.9 18.9404 41.4735 19.0013C41.0469 19.0622 40.6365 19.2066 40.2657 19.4261C39.8949 19.6457 39.571 19.9361 39.3125 20.2808L28.4581 34.7533L22.3813 28.6808C21.7592 28.1012 20.9365 27.7857 20.0865 27.8007C19.2364 27.8157 18.4253 28.16 17.8242 28.7612C17.223 29.3624 16.8786 30.1735 16.8636 31.0235C16.8486 31.8736 17.1641 32.6963 17.7437 33.3183L26.4937 42.0683C26.8261 42.4006 27.2259 42.6576 27.6661 42.8219C28.1063 42.9863 28.5767 43.0542 29.0455 43.021C29.5142 42.9878 29.9703 42.8543 30.383 42.6296C30.7957 42.4048 31.1553 42.0941 31.4375 41.7183L44.5625 24.2183Z" fill="white"/>
</svg>
