<svg width="70" height="56" viewBox="0 0 70 56" fill="none" xmlns="http://www.w3.org/2000/svg">
<path fill-rule="evenodd" clip-rule="evenodd" d="M24.0625 20.25C25.803 20.25 27.4722 19.5586 28.7029 18.3279C29.9336 17.0972 30.625 15.428 30.625 13.6875C30.625 11.947 29.9336 10.2778 28.7029 9.04711C27.4722 7.8164 25.803 7.125 24.0625 7.125C22.322 7.125 20.6528 7.8164 19.4221 9.04711C18.1914 10.2778 17.5 11.947 17.5 13.6875C17.5 15.428 18.1914 17.0972 19.4221 18.3279C20.6528 19.5586 22.322 20.25 24.0625 20.25ZM24.0625 26.8125C27.5435 26.8125 30.8819 25.4297 33.3433 22.9683C35.8047 20.5069 37.1875 17.1685 37.1875 13.6875C37.1875 10.2065 35.8047 6.86814 33.3433 4.40672C30.8819 1.94531 27.5435 0.5625 24.0625 0.5625C20.5815 0.5625 17.2431 1.94531 14.7817 4.40672C12.3203 6.86814 10.9375 10.2065 10.9375 13.6875C10.9375 17.1685 12.3203 20.5069 14.7817 22.9683C17.2431 25.4297 20.5815 26.8125 24.0625 26.8125ZM10.8106 39.4387C7.41125 41.8013 6.5625 44.0894 6.5625 45.1525C6.5625 47.1038 8.14625 48.6875 10.0975 48.6875H38.0275C38.9643 48.6852 39.8621 48.312 40.5246 47.6496C41.187 46.9871 41.5602 46.0893 41.5625 45.1525C41.5625 44.085 40.7138 41.7969 37.3144 39.4387C34.09 37.2031 29.3956 35.5625 24.0625 35.5625C18.7294 35.5625 14.035 37.2031 10.8106 39.4387ZM0 45.1525C0 37.0763 10.8281 29 24.0625 29C29.225 29 34.0288 30.2294 37.9619 32.2113C41.7283 30.0821 45.986 28.975 50.3125 29C61.1406 29 70 35.7287 70 42.4619C70 44.6932 69.1136 46.8331 67.5359 48.4109C65.9581 49.9886 63.8182 50.875 61.5869 50.875H46.3488C44.5287 53.5175 41.4794 55.25 38.0275 55.25H10.0975C7.42019 55.2477 4.85319 54.1831 2.96005 52.29C1.0669 50.3968 0.00231702 47.8298 0 45.1525ZM48.0856 44.3125H61.5869C62.6106 44.3125 63.4375 43.4812 63.4375 42.4619C63.4375 42.0112 63.0175 40.3969 60.4275 38.5681C58.0037 36.8488 54.4119 35.5625 50.3125 35.5625C48.0506 35.5625 45.9419 35.9562 44.1 36.595C46.4012 38.9313 47.8363 41.6087 48.0856 44.3125ZM54.6875 15.875C54.6875 17.0353 54.2266 18.1481 53.4061 18.9686C52.5856 19.7891 51.4728 20.25 50.3125 20.25C49.1522 20.25 48.0394 19.7891 47.2189 18.9686C46.3984 18.1481 45.9375 17.0353 45.9375 15.875C45.9375 14.7147 46.3984 13.6019 47.2189 12.7814C48.0394 11.9609 49.1522 11.5 50.3125 11.5C51.4728 11.5 52.5856 11.9609 53.4061 12.7814C54.2266 13.6019 54.6875 14.7147 54.6875 15.875ZM61.25 15.875C61.25 18.7758 60.0977 21.5578 58.0465 23.609C55.9953 25.6602 53.2133 26.8125 50.3125 26.8125C47.4117 26.8125 44.6297 25.6602 42.5785 23.609C40.5273 21.5578 39.375 18.7758 39.375 15.875C39.375 12.9742 40.5273 10.1922 42.5785 8.14102C44.6297 6.08984 47.4117 4.9375 50.3125 4.9375C53.2133 4.9375 55.9953 6.08984 58.0465 8.14102C60.0977 10.1922 61.25 12.9742 61.25 15.875Z" fill="white"/>
</svg>
