<svg width="70" height="70" viewBox="0 0 70 70" fill="none" xmlns="http://www.w3.org/2000/svg">
<circle cx="35" cy="35" r="34.5" fill="white" stroke="#C4C2C0"/>
<g clip-path="url(#clip0_5762_545)">
<path d="M37.8803 34.9781C37.8803 36.2407 36.8782 37.2629 35.6404 37.2629C34.4025 37.2629 33.4004 36.2407 33.4004 34.9781C33.4004 33.7155 34.4025 32.6934 35.6404 32.6934C36.8782 32.6934 37.8803 33.7155 37.8803 34.9781Z" fill="#2654A5"/>
<path d="M36.0972 25.2064C36.0235 25.2064 35.9499 25.1914 35.8762 25.1914C35.8025 25.1914 35.7288 25.1914 35.6551 25.1914C35.5814 25.1914 35.5078 25.1914 35.4341 25.1914C35.3604 25.1914 35.2867 25.1914 35.213 25.2064C30.1142 25.4469 26.0469 29.7309 26.0469 34.9918C26.0469 37.5471 27.0048 39.877 28.5816 41.6206C29.7605 42.9284 30.5415 44.5367 30.7921 46.2803H40.5329C40.7835 44.5517 41.5645 42.9284 42.7434 41.6357C44.3202 39.892 45.2781 37.5622 45.2781 34.9918C45.2634 29.7309 41.1961 25.4469 36.0972 25.2064ZM41.2256 36.7806C41.1519 37.1714 41.0045 37.5471 40.8129 37.8929C40.6214 38.2536 40.3856 38.5693 40.0908 38.8398C40.0024 38.93 39.8698 38.9451 39.7666 38.8849L38.8088 38.419C38.3077 38.9 37.7035 39.2607 37.0404 39.4862L36.9667 40.5684C36.9667 40.6887 36.8783 40.7939 36.7751 40.824C36.392 40.9442 36.0088 41.0043 35.6257 41.0043C35.2278 41.0043 34.8594 40.9442 34.4615 40.824C34.3436 40.7939 34.2699 40.6887 34.2699 40.5684L34.2109 39.4862C33.5478 39.2758 32.9436 38.9 32.4278 38.419L31.4699 38.8849C31.3668 38.93 31.2342 38.915 31.1457 38.8398C30.8657 38.5542 30.63 38.2536 30.4236 37.8929C30.2321 37.5471 30.0994 37.1714 30.011 36.7806C29.9815 36.6603 30.0405 36.5401 30.1289 36.4799L31.0278 35.8937C30.9689 35.578 30.9394 35.2774 30.9394 34.9618C30.9394 34.6311 30.9689 34.3154 31.0278 33.9998L30.1436 33.4135C30.0405 33.3534 29.9963 33.2332 30.0258 33.1129C30.1142 32.7071 30.2468 32.3313 30.4531 32.0006C30.6447 31.6549 30.8805 31.3392 31.1605 31.0536C31.2489 30.9634 31.3815 30.9484 31.4847 31.0085L32.4278 31.4895C32.9289 31.0085 33.5331 30.6478 34.1815 30.4373L34.2404 29.3701C34.2404 29.2499 34.3288 29.1446 34.432 29.1146C35.1836 28.8891 35.9941 28.8741 36.7456 29.1146C36.8635 29.1446 36.9372 29.2499 36.9372 29.3701L37.0109 30.4373C37.6593 30.6478 38.2488 31.0085 38.7498 31.4895L39.693 31.0085C39.7961 30.9634 39.9287 30.9785 40.0172 31.0536C40.2972 31.3392 40.5477 31.6398 40.7393 32.0006C40.9308 32.3313 41.0635 32.7071 41.1519 33.1129C41.1813 33.2332 41.1224 33.3534 41.034 33.4135L40.1498 33.9998C40.2087 34.3154 40.2382 34.6311 40.2382 34.9618C40.2382 35.2774 40.2087 35.578 40.1498 35.8937L41.0487 36.4799C41.1961 36.5401 41.255 36.6603 41.2256 36.7806Z" fill="#2654A5"/>
<path d="M40.3849 48.5352C40.1933 51.0304 38.1449 52.9995 35.6397 52.9995C33.1492 52.9995 31.1008 51.0304 30.8945 48.5352H40.3849Z" fill="#2654A5"/>
<path d="M23.821 33.6547C23.821 34.271 23.3199 34.782 22.7157 34.782H19.1052C18.501 34.782 18 34.271 18 33.6547C18 33.0384 18.501 32.5273 19.1052 32.5273H22.7157C23.3199 32.5273 23.821 33.0384 23.821 33.6547Z" fill="#2654A5"/>
<path d="M53.2936 33.6547C53.2936 34.271 52.7926 34.782 52.1884 34.782H48.5779C47.9737 34.782 47.4727 34.271 47.4727 33.6547C47.4727 33.0384 47.9737 32.5273 48.5779 32.5273H52.1884C52.7926 32.5273 53.2936 33.0384 53.2936 33.6547Z" fill="#2654A5"/>
<path d="M35.6404 17C36.2446 17 36.7456 17.5111 36.7456 18.1273V21.81C36.7456 22.4263 36.2446 22.9374 35.6404 22.9374C35.0362 22.9374 34.5352 22.4263 34.5352 21.81V18.1273C34.5352 17.5111 35.0362 17 35.6404 17Z" fill="#2654A5"/>
<path d="M48.1371 22.2469C48.5645 22.6828 48.5645 23.4043 48.1371 23.8402L45.5877 26.4406C45.1603 26.8765 44.453 26.8765 44.0256 26.4406C43.5982 26.0047 43.5982 25.2832 44.0256 24.8473L46.575 22.2469C47.0024 21.8109 47.695 21.8109 48.1371 22.2469Z" fill="#2654A5"/>
<path d="M23.1291 22.2469C22.7018 22.6828 22.7018 23.4043 23.1291 23.8402L25.6785 26.4406C26.1059 26.8765 26.8133 26.8765 27.2406 26.4406C27.668 26.0047 27.668 25.2832 27.2406 24.8473L24.6912 22.2469C24.2491 21.8109 23.5565 21.8109 23.1291 22.2469Z" fill="#2654A5"/>
</g>
<defs>
<clipPath id="clip0_5762_545">
<rect width="35.2941" height="36" fill="white" transform="translate(18 17)"/>
</clipPath>
</defs>
</svg>
