<svg width="70" height="70" viewBox="0 0 70 70" fill="none" xmlns="http://www.w3.org/2000/svg">
<circle cx="35" cy="35" r="34.5" fill="white" stroke="#C4C2C0"/>
<g clip-path="url(#clip0_5762_544)">
<path d="M44.9778 21.172C42.2596 19.3745 39.0008 18.3223 35.4935 18.3223C32.0008 18.3223 28.7419 19.3745 26.0237 21.172C26.0237 21.2012 26.0091 21.2158 26.0091 21.245C26.6375 21.6396 27.149 22.1949 27.4705 22.8525C29.7941 21.3765 32.5415 20.5143 35.4935 20.5143C38.4454 20.5143 41.1928 21.3765 43.5164 22.8525C43.8525 22.1949 44.364 21.6396 44.9778 21.2596C44.9924 21.2304 44.9778 21.2012 44.9778 21.172ZM35.4935 50.4872C32.4099 50.4872 29.531 49.5519 27.149 47.9444C27.6312 48.6166 27.9089 49.435 27.9089 50.3264V50.911C30.2033 52.0509 32.7753 52.6793 35.4935 52.6793C38.2116 52.6793 40.7836 52.0363 43.078 50.911V50.3264C43.078 49.435 43.3557 48.6166 43.8379 47.9444C41.4559 49.5519 38.5916 50.4872 35.4935 50.4872ZM51.6271 29.5749H49.2743C50.0634 31.387 50.4872 33.3891 50.4872 35.4935C50.4872 37.5978 50.0488 39.5999 49.2596 41.412C50.0342 41.4267 50.7502 41.6605 51.3786 42.0404C52.2116 40.0237 52.6793 37.8024 52.6793 35.4935C52.6793 33.4183 52.2993 31.4308 51.6271 29.5749ZM20.5143 35.4935C20.5143 33.3891 20.9527 31.387 21.7419 29.5749H19.3745C18.6876 31.4162 18.3223 33.4183 18.3223 35.4935C18.3223 37.817 18.7899 40.0237 19.6229 42.0404C20.2367 41.6605 20.9674 41.4267 21.7419 41.412C20.9527 39.5999 20.5143 37.5978 20.5143 35.4935Z" fill="#2654A5"/>
<path d="M35.4924 24.8984C29.6469 24.8984 24.8828 29.6625 24.8828 35.508C24.8828 41.3536 29.6323 46.1176 35.4924 46.1176C41.3379 46.1176 46.102 41.3536 46.102 35.508C46.102 29.6479 41.3379 24.8984 35.4924 24.8984ZM35.4924 43.911C30.8452 43.911 27.0749 40.1406 27.0749 35.4934C27.0749 30.8462 30.8452 27.0759 35.4924 27.0759C40.125 27.0759 43.91 30.8462 43.91 35.4934C43.91 40.1406 40.1396 43.911 35.4924 43.911Z" fill="#2654A5"/>
<path d="M40.0954 37.0279V39.8922C40.0954 40.0676 39.9492 40.2137 39.7738 40.2137H31.2102C31.0348 40.2137 30.8887 40.0676 30.8887 39.8922V37.0279C30.8887 35.9027 31.7217 34.9674 32.7738 34.8066H32.8615C33.5776 35.3766 34.4983 35.7127 35.4774 35.7127C36.4711 35.7127 37.3772 35.3766 38.1079 34.8066H38.1956C39.277 34.982 40.0954 35.9027 40.0954 37.0279Z" fill="#2654A5"/>
<path d="M35.4921 34.0467C36.8804 34.0467 38.0057 32.9214 38.0057 31.5331C38.0057 30.1448 36.8804 29.0195 35.4921 29.0195C34.1038 29.0195 32.9785 30.1448 32.9785 31.5331C32.9785 32.9214 34.1184 34.0467 35.4921 34.0467Z" fill="#2654A5"/>
<path d="M25.7161 24.7085V27.1197C25.7161 27.2659 25.5992 27.3828 25.453 27.3828H18.263C18.1169 27.3828 18 27.2659 18 27.1197V24.7085C18 23.7732 18.6868 22.984 19.5783 22.8379H19.6514C20.2505 23.3201 21.0251 23.5978 21.8434 23.5978C22.6764 23.5978 23.4363 23.3201 24.0501 22.8379H24.1378C25.0292 22.984 25.7161 23.7732 25.7161 24.7085Z" fill="#2654A5"/>
<path d="M21.8583 22.2088C23.0128 22.2088 23.9627 21.2589 23.9627 20.1044C23.9627 18.9499 23.0274 18 21.8583 18C20.7038 18 19.7539 18.9499 19.7539 20.1044C19.7539 21.2735 20.7038 22.2088 21.8583 22.2088Z" fill="#2654A5"/>
<path d="M52.9993 24.7085V27.1197C52.9993 27.2659 52.8824 27.3828 52.7362 27.3828H45.5463C45.4001 27.3828 45.2832 27.2659 45.2832 27.1197V24.7085C45.2832 23.7732 45.9701 22.984 46.8615 22.8379H46.9346C47.5337 23.3201 48.3083 23.5978 49.1266 23.5978C49.9596 23.5978 50.7195 23.3201 51.3333 22.8379H51.4064C52.3124 22.984 52.9993 23.7732 52.9993 24.7085Z" fill="#2654A5"/>
<path d="M49.1259 22.2088C50.2804 22.2088 51.2303 21.2589 51.2303 20.1044C51.2449 18.9499 50.295 18 49.1259 18C47.9714 18 47.0215 18.9499 47.0215 20.1044C47.0215 21.2735 47.9714 22.2088 49.1259 22.2088Z" fill="#2654A5"/>
<path d="M25.7161 50.3256V52.7369C25.7161 52.8831 25.5992 53 25.453 53H18.263C18.1169 53 18 52.8831 18 52.7369V50.3256C18 49.3904 18.6868 48.6012 19.5783 48.4551H19.6514C20.2505 48.9373 21.0251 49.215 21.8434 49.215C22.6764 49.215 23.4363 48.9373 24.0501 48.4551H24.1378C25.0292 48.6012 25.7161 49.3757 25.7161 50.3256Z" fill="#2654A5"/>
<path d="M21.8583 47.826C23.0128 47.826 23.9627 46.8761 23.9627 45.7216C23.9627 44.5671 23.0128 43.6172 21.8583 43.6172C20.7038 43.6172 19.7539 44.5671 19.7539 45.7216C19.7539 46.8761 20.7038 47.826 21.8583 47.826Z" fill="#2654A5"/>
<path d="M52.9993 50.3256V52.7369C52.9993 52.8831 52.8824 53 52.7362 53H45.5463C45.4001 53 45.2832 52.8831 45.2832 52.7369V50.3256C45.2832 49.3904 45.9701 48.6012 46.8615 48.4551H46.9346C47.5337 48.9373 48.3083 49.215 49.1266 49.215C49.9596 49.215 50.7195 48.9373 51.3333 48.4551H51.4064C52.3124 48.6012 52.9993 49.3757 52.9993 50.3256Z" fill="#2654A5"/>
<path d="M49.1259 47.826C50.2804 47.826 51.2303 46.8761 51.2303 45.7216C51.2303 44.5671 50.2804 43.6172 49.1259 43.6172C47.9714 43.6172 47.0215 44.5671 47.0215 45.7216C47.0215 46.8761 47.9714 47.826 49.1259 47.826Z" fill="#2654A5"/>
</g>
<defs>
<clipPath id="clip0_5762_544">
<rect width="35" height="35" fill="white" transform="translate(18 18)"/>
</clipPath>
</defs>
</svg>
