<svg width="56" height="54" viewBox="0 0 56 54" fill="none" xmlns="http://www.w3.org/2000/svg">
<path d="M12.874 31.375C10.7108 31.375 8.59616 32.0165 6.7975 33.2183C4.99884 34.4201 3.59695 36.1283 2.76912 38.1269C1.94128 40.1255 1.72469 42.3246 2.14671 44.4463C2.56874 46.568 3.61043 48.5168 5.14007 50.0465C6.66971 51.5761 8.61858 52.6178 10.7402 53.0398C12.8619 53.4619 15.0611 53.2453 17.0596 52.4174C19.0582 51.5896 20.7664 50.1877 21.9682 48.389C23.1701 46.5904 23.8116 44.4757 23.8116 42.3125C23.8116 39.4117 22.6592 36.6297 20.608 34.5785C18.5569 32.5273 15.7749 31.375 12.874 31.375ZM12.874 46.6875C12.0088 46.6875 11.1629 46.4309 10.4434 45.9502C9.72397 45.4694 9.16321 44.7862 8.83208 43.9867C8.50094 43.1873 8.4143 42.3076 8.58311 41.459C8.75192 40.6103 9.1686 39.8308 9.78046 39.2189C10.3923 38.607 11.1719 38.1904 12.0205 38.0216C12.8692 37.8527 13.7489 37.9394 14.5483 38.2705C15.3477 38.6017 16.031 39.1624 16.5117 39.8819C16.9925 40.6013 17.249 41.4472 17.249 42.3125C17.249 43.4728 16.7881 44.5856 15.9676 45.4061C15.1472 46.2266 14.0344 46.6875 12.874 46.6875ZM4.12405 27C3.47471 27.0005 2.83981 26.8083 2.29973 26.4478C1.75966 26.0873 1.3387 25.5747 1.09013 24.9748C0.84157 24.3749 0.776586 23.7147 0.903408 23.0779C1.03023 22.4411 1.34315 21.8562 1.80257 21.3973L4.94436 18.25L1.80257 15.1027C1.18614 14.4863 0.839844 13.6503 0.839844 12.7785C0.839844 11.9068 1.18614 11.0707 1.80257 10.4543C2.41899 9.83787 3.25503 9.49157 4.12678 9.49157C4.99854 9.49157 5.83458 9.83787 6.451 10.4543L9.5928 13.6016L12.7401 10.4598C13.3565 9.84334 14.1925 9.49704 15.0643 9.49704C15.936 9.49704 16.7721 9.84334 17.3885 10.4598C18.0049 11.0762 18.3512 11.9122 18.3512 12.784C18.3512 13.6557 18.0049 14.4918 17.3885 15.1082L14.2412 18.25L17.3912 21.3973C18.0077 22.0137 18.354 22.8497 18.354 23.7215C18.354 24.5932 18.0077 25.4293 17.3912 26.0457C16.7748 26.6621 15.9388 27.0084 15.067 27.0084C14.1953 27.0084 13.3592 26.6621 12.7428 26.0457L9.5928 22.8984L6.44554 26.0402C6.14058 26.3448 5.7786 26.5864 5.38028 26.7511C4.98195 26.9158 4.55508 27.0003 4.12405 27ZM54.5705 47.6473C55.187 48.2637 55.5333 49.0997 55.5333 49.9715C55.5333 50.8432 55.187 51.6793 54.5705 52.2957C53.9541 52.9121 53.1181 53.2584 52.2463 53.2584C51.3746 53.2584 50.5385 52.9121 49.9221 52.2957L46.7803 49.1484L43.633 52.2984C43.0166 52.9149 42.1806 53.2612 41.3088 53.2612C40.4371 53.2612 39.601 52.9149 38.9846 52.2984C38.3682 51.682 38.0219 50.846 38.0219 49.9742C38.0219 49.1025 38.3682 48.2664 38.9846 47.65L42.1319 44.5L38.9819 41.3527C38.3654 40.7363 38.0191 39.9003 38.0191 39.0285C38.0191 38.1568 38.3654 37.3207 38.9819 36.7043C39.5983 36.0879 40.4343 35.7416 41.3061 35.7416C42.1778 35.7416 43.0139 36.0879 43.6303 36.7043L46.7803 39.8516L49.9276 36.7016C50.544 36.0851 51.38 35.7388 52.2518 35.7388C53.1235 35.7388 53.9596 36.0851 54.576 36.7016C55.1924 37.318 55.5387 38.154 55.5387 39.0258C55.5387 39.8975 55.1924 40.7336 54.576 41.35L51.4287 44.5L54.5705 47.6473ZM42.7033 22.3215C41.2787 28.6105 36.324 34.2242 30.374 36.327C29.9677 36.4706 29.5371 36.5328 29.1068 36.51C28.6764 36.4872 28.2548 36.3799 27.8659 36.1942C27.0806 35.819 26.4764 35.1473 26.1864 34.3268C25.8963 33.5062 25.944 32.604 26.3191 31.8187C26.6943 31.0333 27.366 30.4291 28.1865 30.1391C32.0338 28.7719 35.3698 24.9684 36.2994 20.8695C36.9475 18.0094 36.4088 15.1711 34.7463 12.5187V14.9797C34.7463 15.8499 34.4006 16.6845 33.7853 17.2999C33.1699 17.9152 32.3353 18.2609 31.4651 18.2609C30.5948 18.2609 29.7602 17.9152 29.1449 17.2999C28.5295 16.6845 28.1838 15.8499 28.1838 14.9797V4.03125C28.1838 3.16101 28.5295 2.32641 29.1449 1.71106C29.7602 1.0957 30.5948 0.75 31.4651 0.75H42.4026C43.2728 0.75 44.1074 1.0957 44.7228 1.71106C45.3381 2.32641 45.6838 3.16101 45.6838 4.03125C45.6838 4.90149 45.3381 5.73609 44.7228 6.35144C44.1074 6.9668 43.2728 7.3125 42.4026 7.3125H39.124C42.6158 11.8543 43.8873 17.0906 42.7033 22.3215Z" fill="white"/>
</svg>
