<svg width="60" height="54" viewBox="0 0 60 54" fill="none" xmlns="http://www.w3.org/2000/svg">
<path d="M30.0007 6.58333C28.8404 6.58333 27.7276 7.04427 26.9071 7.86474C26.0866 8.68521 25.6257 9.79801 25.6257 10.9583C25.6257 12.1187 26.0866 13.2315 26.9071 14.0519C27.7276 14.8724 28.8404 15.3333 30.0007 15.3333C31.161 15.3333 32.2738 14.8724 33.0943 14.0519C33.9148 13.2315 34.3757 12.1187 34.3757 10.9583C34.3757 9.79801 33.9148 8.68521 33.0943 7.86474C32.2738 7.04427 31.161 6.58333 30.0007 6.58333ZM19.7924 10.9583C19.7924 9.61776 20.0564 8.29031 20.5694 7.05177C21.0824 5.81324 21.8344 4.68788 22.7823 3.73995C23.7302 2.79202 24.8556 2.04008 26.0941 1.52706C27.3327 1.01405 28.6601 0.75 30.0007 0.75C31.3413 0.75 32.6687 1.01405 33.9073 1.52706C35.1458 2.04008 36.2711 2.79202 37.2191 3.73995C38.167 4.68788 38.9189 5.81324 39.432 7.05177C39.945 8.29031 40.209 9.61776 40.209 10.9583C40.209 13.6658 39.1335 16.2623 37.2191 18.1767C35.3046 20.0911 32.7081 21.1667 30.0007 21.1667C27.2933 21.1667 24.6967 20.0911 22.7823 18.1767C20.8679 16.2623 19.7924 13.6658 19.7924 10.9583ZM9.58403 15.3333C8.81048 15.3333 8.06861 15.6406 7.52163 16.1876C6.97465 16.7346 6.66736 17.4765 6.66736 18.25C6.66736 19.0235 6.97465 19.7654 7.52163 20.3124C8.06861 20.8594 8.81048 21.1667 9.58403 21.1667C10.3576 21.1667 11.0994 20.8594 11.6464 20.3124C12.1934 19.7654 12.5007 19.0235 12.5007 18.25C12.5007 17.4765 12.1934 16.7346 11.6464 16.1876C11.0994 15.6406 10.3576 15.3333 9.58403 15.3333ZM0.834028 18.25C0.834028 15.9294 1.7559 13.7038 3.39684 12.0628C5.03779 10.4219 7.26338 9.5 9.58403 9.5C11.9047 9.5 14.1303 10.4219 15.7712 12.0628C17.4122 13.7038 18.334 15.9294 18.334 18.25C18.334 20.5706 17.4122 22.7962 15.7712 24.4372C14.1303 26.0781 11.9047 27 9.58403 27C7.26338 27 5.03779 26.0781 3.39684 24.4372C1.7559 22.7962 0.834028 20.5706 0.834028 18.25ZM47.5007 18.25C47.5007 17.4765 47.808 16.7346 48.355 16.1876C48.9019 15.6406 49.6438 15.3333 50.4174 15.3333C51.1909 15.3333 51.9328 15.6406 52.4798 16.1876C53.0267 16.7346 53.334 17.4765 53.334 18.25C53.334 19.0235 53.0267 19.7654 52.4798 20.3124C51.9328 20.8594 51.1909 21.1667 50.4174 21.1667C49.6438 21.1667 48.9019 20.8594 48.355 20.3124C47.808 19.7654 47.5007 19.0235 47.5007 18.25ZM50.4174 9.5C48.0967 9.5 45.8711 10.4219 44.2302 12.0628C42.5892 13.7038 41.6674 15.9294 41.6674 18.25C41.6674 20.5706 42.5892 22.7962 44.2302 24.4372C45.8711 26.0781 48.0967 27 50.4174 27C52.738 27 54.9636 26.0781 56.6045 24.4372C58.2455 22.7962 59.1674 20.5706 59.1674 18.25C59.1674 15.9294 58.2455 13.7038 56.6045 12.0628C54.9636 10.4219 52.738 9.5 50.4174 9.5ZM18.334 34.2917C18.334 30.2667 21.6007 27 25.6257 27H34.3757C38.4007 27 41.6674 30.2667 41.6674 34.2917V41.5833C41.6674 44.6775 40.4382 47.645 38.2503 49.8329C36.0624 52.0208 33.0949 53.25 30.0007 53.25C26.9065 53.25 23.939 52.0208 21.7511 49.8329C19.5632 47.645 18.334 44.6775 18.334 41.5833V34.2917ZM25.6257 32.8333C25.2389 32.8333 24.868 32.987 24.5945 33.2605C24.321 33.534 24.1674 33.9049 24.1674 34.2917V41.5833C24.1674 43.1304 24.7819 44.6142 25.8759 45.7081C26.9699 46.8021 28.4536 47.4167 30.0007 47.4167C31.5478 47.4167 33.0315 46.8021 34.1255 45.7081C35.2194 44.6142 35.834 43.1304 35.834 41.5833V34.2917C35.834 33.9049 35.6804 33.534 35.4069 33.2605C35.1334 32.987 34.7625 32.8333 34.3757 32.8333H25.6257ZM12.5007 34.2917C12.5007 32.6058 12.8157 30.9958 13.399 29.52L6.21819 31.445C4.3513 31.9454 2.75948 33.1666 1.79254 34.8402C0.825601 36.5137 0.56267 38.5027 1.06153 40.37L2.19319 44.5992C2.58984 46.0793 3.27418 47.4667 4.20711 48.6823C5.14005 49.8979 6.30331 50.9178 7.63046 51.6837C8.9576 52.4497 10.4226 52.9467 11.9419 53.1464C13.4612 53.3461 15.0049 53.2445 16.4849 52.8475L16.584 52.8183C15.2384 51.2152 14.1913 49.3837 13.4924 47.4108C12.2033 47.4174 10.9484 46.9969 9.92365 46.2149C8.8989 45.4328 8.16204 44.3334 7.82819 43.0883L6.69653 38.8592C6.5968 38.4855 6.64954 38.0876 6.84316 37.7529C7.03679 37.4181 7.35543 37.174 7.72903 37.0742L12.5007 35.7908V34.2917ZM43.5107 52.8417L43.4174 52.8242C44.7474 51.2317 45.8032 49.4058 46.509 47.4108C47.7971 47.4161 49.0507 46.995 50.0742 46.2131C51.0978 45.4311 51.8338 44.3324 52.1674 43.0883L53.2932 38.8592C53.3929 38.4855 53.3402 38.0876 53.1466 37.7529C52.9529 37.4181 52.6343 37.174 52.2607 37.0742L47.5007 35.7967V34.2917C47.5007 32.6058 47.1857 31.0017 46.6082 29.52L53.7715 31.445C55.6384 31.9454 57.2303 33.1666 58.1972 34.8402C59.1641 36.5137 59.4271 38.5027 58.9282 40.37L57.7965 44.5992C57.3999 46.0793 56.7155 47.4667 55.7826 48.6823C54.8497 49.8979 53.6864 50.9178 52.3593 51.6837C51.0321 52.4497 49.5671 52.9467 48.0478 53.1464C46.5286 53.3461 44.9849 53.2445 43.5049 52.8475" fill="white"/>
</svg>
