<svg width="63" height="57" viewBox="0 0 63 57" fill="none" xmlns="http://www.w3.org/2000/svg">
<path fill-rule="evenodd" clip-rule="evenodd" d="M19.8425 13.318C17.6107 15.5175 15.9049 18.1931 14.8528 21.1447C13.8006 24.0964 13.4293 27.2476 13.7665 30.363C13.864 31.2866 13.5906 32.2111 13.0064 32.9331C12.4222 33.6551 11.5752 34.1155 10.6515 34.213C9.72793 34.3104 8.80342 34.037 8.08141 33.4528C7.35939 32.8687 6.89901 32.0216 6.80154 31.098C6.35452 26.9365 6.85324 22.7278 8.26048 18.7861C9.66772 14.8444 11.9471 11.2714 14.9285 8.33397C25.9045 -2.48802 43.5935 -2.30603 54.44 8.69097C65.2865 19.688 65.2235 37.384 54.251 48.206C49.1719 53.226 42.3514 56.0921 35.211 56.207C32.5125 56.2555 29.8212 55.9136 27.2205 55.192C26.7673 55.0789 26.3413 54.8763 25.9676 54.596C25.5939 54.3158 25.2801 53.9636 25.0447 53.5601C24.8092 53.1567 24.6569 52.7102 24.5968 52.247C24.5366 51.7838 24.5697 51.3132 24.6943 50.863C24.8188 50.4128 25.0322 49.992 25.3218 49.6256C25.6115 49.2591 25.9716 48.9544 26.3809 48.7293C26.7902 48.5042 27.2404 48.3633 27.705 48.3149C28.1696 48.2665 28.6391 48.3116 29.086 48.4475C31.0386 48.9887 33.0592 49.2445 35.085 49.207C40.4287 49.1242 45.5336 46.9799 49.3335 43.222C57.534 35.137 57.611 21.8755 49.456 13.6085C41.301 5.34148 28.0395 5.23297 19.8425 13.318Z" fill="white"/>
<path fill-rule="evenodd" clip-rule="evenodd" d="M12.8849 33.9329C12.5793 34.2763 12.209 34.5561 11.7952 34.7564C11.3815 34.9567 10.9323 35.0735 10.4734 35.1001C10.0144 35.1268 9.55476 35.0627 9.12059 34.9117C8.68641 34.7607 8.28623 34.5256 7.94291 34.2199L1.92291 28.8649C1.22951 28.2476 0.809716 27.3802 0.755893 26.4534C0.70207 25.5265 1.01862 24.6163 1.63591 23.9229C2.25321 23.2295 3.12067 22.8097 4.04748 22.7559C4.97428 22.7021 5.88451 23.0186 6.57791 23.6359L12.5979 28.9909C12.9413 29.2965 13.2211 29.6668 13.4214 30.0806C13.6217 30.4944 13.7385 30.9435 13.7651 31.4025C13.7918 31.8614 13.7277 32.3211 13.5767 32.7552C13.4257 33.1894 13.1906 33.5896 12.8849 33.9329Z" fill="white"/>
<path fill-rule="evenodd" clip-rule="evenodd" d="M7.46953 33.6C7.74531 33.9677 8.09081 34.2775 8.4863 34.5117C8.8818 34.7458 9.31955 34.8998 9.77456 34.9648C10.2296 35.0298 10.6929 35.0046 11.1382 34.8905C11.5834 34.7764 12.0018 34.5758 12.3695 34.3L19.3695 29.05C20.1121 28.493 20.6031 27.6639 20.7344 26.745C20.8656 25.826 20.6265 24.8926 20.0695 24.15C19.5126 23.4074 18.6834 22.9165 17.7645 22.7852C16.8456 22.6539 15.9121 22.893 15.1695 23.45L8.16953 28.7C7.80183 28.9758 7.49205 29.3213 7.25787 29.7168C7.02369 30.1123 6.86971 30.55 6.80471 31.005C6.73971 31.46 6.76496 31.9234 6.87903 32.3686C6.9931 32.8139 7.19376 33.2323 7.46953 33.6ZM33.9995 14C34.9278 14 35.818 14.3687 36.4744 15.0251C37.1308 15.6815 37.4995 16.5717 37.4995 17.5V29.75C37.4995 30.6783 37.1308 31.5685 36.4744 32.2249C35.818 32.8813 34.9278 33.25 33.9995 33.25C33.0713 33.25 32.181 32.8813 31.5247 32.2249C30.8683 31.5685 30.4995 30.6783 30.4995 29.75V17.5C30.4995 16.5717 30.8683 15.6815 31.5247 15.0251C32.181 14.3687 33.0713 14 33.9995 14Z" fill="white"/>
<path fill-rule="evenodd" clip-rule="evenodd" d="M48 29.75C48 30.6783 47.6313 31.5685 46.9749 32.2249C46.3185 32.8813 45.4283 33.25 44.5 33.25H34C33.0717 33.25 32.1815 32.8813 31.5251 32.2249C30.8687 31.5685 30.5 30.6783 30.5 29.75C30.5 28.8217 30.8687 27.9315 31.5251 27.2751C32.1815 26.6187 33.0717 26.25 34 26.25H44.5C45.4283 26.25 46.3185 26.6187 46.9749 27.2751C47.6313 27.9315 48 28.8217 48 29.75Z" fill="white"/>
</svg>
