<svg width="70" height="70" viewBox="0 0 70 70" fill="none" xmlns="http://www.w3.org/2000/svg">
<circle cx="35" cy="35" r="34.5" fill="white" stroke="#C4C2C0"/>
<path d="M34.4962 27.0968C36.9416 27.0968 38.924 25.2843 38.924 23.0484C38.924 20.8125 36.9416 19 34.4962 19C32.0508 19 30.0684 20.8125 30.0684 23.0484C30.0684 25.2843 32.0508 27.0968 34.4962 27.0968Z" fill="#2654A5"/>
<path d="M46.7716 26.4954L39.8011 32.8552C39.2458 33.3763 38.9243 34.0577 38.9243 34.7792V49.423C38.9243 50.2915 38.1498 50.9862 37.2145 50.9862C36.2647 50.9862 35.5048 50.2781 35.5048 49.423V43.1433C35.5048 42.6489 35.0518 42.2347 34.5111 42.2347C33.9558 42.2347 33.5174 42.6489 33.5174 43.1433V49.4096C33.5174 50.2781 32.7429 50.9862 31.793 50.9862C30.8432 50.9862 30.0687 50.2781 30.0687 49.4096V34.7792C30.0541 34.0577 29.7472 33.3763 29.1919 32.8552L22.236 26.4954C21.8853 26.1747 21.6953 25.7338 21.6953 25.3062C21.6953 24.8252 21.9145 24.3576 22.3383 24.0236C23.0836 23.4357 24.2088 23.5426 24.8956 24.1839L30.1856 29.0206C30.7409 29.5417 31.5008 29.8223 32.2899 29.8223H36.7031C37.4922 29.8223 38.2667 29.5283 38.822 29.0206L44.1851 24.1037C44.5358 23.7831 45.0034 23.6094 45.4856 23.6094C45.9532 23.6094 46.4209 23.7697 46.7716 24.1037C47.4876 24.7584 47.4876 25.8273 46.7716 26.4954Z" fill="#2654A5"/>
<path d="M51.9453 39.3889C51.8722 39.4958 51.7553 39.5759 51.6092 39.5759H49.7095V50.3316C49.7095 50.7057 49.388 50.9997 48.9788 50.9997H45.1063C44.6971 50.9997 44.3757 50.7057 44.3757 50.3316V39.5759H42.4759C42.3444 39.5759 42.2129 39.5091 42.1398 39.3889C42.0668 39.282 42.0814 39.1484 42.1544 39.0415L46.7284 32.3476C46.8745 32.1472 47.2398 32.1472 47.3714 32.3476L51.9453 39.0415C52.0184 39.1484 52.0184 39.282 51.9453 39.3889Z" fill="#2654A5"/>
<path d="M26.8535 39.3889C26.7804 39.4958 26.6635 39.5759 26.5174 39.5759H24.6177V50.3316C24.6177 50.7057 24.2962 50.9997 23.887 50.9997H20.0145C19.6054 50.9997 19.2839 50.7057 19.2839 50.3316V39.5759H17.3841C17.2526 39.5759 17.1211 39.5091 17.048 39.3889C16.975 39.282 16.9896 39.1484 17.0627 39.0415L21.6366 32.3476C21.7827 32.1472 22.148 32.1472 22.2796 32.3476L26.8389 39.0415C26.912 39.1484 26.9266 39.282 26.8535 39.3889Z" fill="#2654A5"/>
</svg>
