<svg width="70" height="70" viewBox="0 0 70 70" fill="none" xmlns="http://www.w3.org/2000/svg">
<circle cx="35" cy="35" r="34.5" fill="white" stroke="#C4C2C0"/>
<g clip-path="url(#clip0_5762_541)">
<path d="M46.9052 24.0063C46.9052 24.6054 46.423 25.0731 45.8384 25.0731H29.018C28.4188 25.0731 27.9512 24.5908 27.9512 24.0063C27.9512 23.4217 28.4334 22.9395 29.018 22.9395H45.8384C46.4376 22.9395 46.9052 23.4217 46.9052 24.0063Z" fill="#2654A5"/>
<path d="M46.906 33.8861C46.906 34.4853 46.4237 34.9529 45.8392 34.9529H36.9102L38.4446 32.8047H45.8392C46.4383 32.8047 46.906 33.2869 46.906 33.8861Z" fill="#2654A5"/>
<path d="M29.0183 27.8789H34.7177L33.1832 30.0271H29.0183C28.4191 30.0271 27.9515 29.5449 27.9515 28.9603C27.9369 28.3465 28.4191 27.8789 29.0183 27.8789Z" fill="#2654A5"/>
<path d="M46.9065 28.9467C46.9065 29.5458 46.4243 30.0135 45.8397 30.0135H40.228C40.3449 29.6043 40.3742 29.1659 40.3011 28.7274C40.2573 28.4206 40.155 28.1283 40.0234 27.8652H45.8543C46.4389 27.8798 46.9065 28.3475 46.9065 28.9467Z" fill="#2654A5"/>
<path d="M50.443 18H24.4305C23.0129 18 21.873 19.1399 21.873 20.5574V21.5219C22.2384 21.4342 22.633 21.3904 23.0275 21.3904C23.3783 21.3904 23.729 21.4196 24.0651 21.4927V20.5428C24.0651 20.3382 24.2259 20.1775 24.4305 20.1775H50.443C50.6476 20.1775 50.8083 20.3382 50.8083 20.5428V37.3633C50.8083 37.5679 50.6476 37.7286 50.443 37.7286H35.3031C34.9962 38.3716 34.514 38.9269 33.871 39.2923L32.8188 39.9207H50.443C51.8459 39.9207 53.0004 38.7808 53.0004 37.3633V20.5574C53.0004 19.1399 51.8459 18 50.443 18Z" fill="#2654A5"/>
<path d="M23.0133 29.7062C24.7001 29.7062 26.0675 28.3388 26.0675 26.6519C26.0675 24.9651 24.7001 23.5977 23.0133 23.5977C21.3264 23.5977 19.959 24.9651 19.959 26.6519C19.959 28.3388 21.3264 29.7062 23.0133 29.7062Z" fill="#2654A5"/>
<path d="M38.007 29.6614L33.4475 36.0184C33.5206 36.5591 33.2721 37.1291 32.7607 37.4213L27.0174 40.8117C26.769 40.9579 26.506 41.0602 26.2283 41.0894C25.3807 40.3587 24.2993 39.9203 23.1009 39.9203C21.9026 39.9203 20.792 40.3733 19.959 41.104V34.8785C19.959 34.0309 20.2951 33.271 20.8504 32.7303C21.4057 32.175 22.1657 31.8389 23.0133 31.8389C24.6938 31.8389 26.0529 33.2126 26.0529 34.8932V36.7053C26.0529 37.2898 26.6813 37.6552 27.1928 37.3629L30.0863 35.7115L31.3431 34.9662C31.6792 34.7762 32.0592 34.7324 32.4099 34.8201L36.7648 28.7554C37.0133 28.4192 37.4809 28.3316 37.8316 28.58C38.1678 28.843 38.2554 29.3253 38.007 29.6614Z" fill="#2654A5"/>
<path d="M35.4919 47.3295C36.924 47.3295 38.0931 46.1604 38.0931 44.7282C38.0931 43.2961 36.924 42.127 35.4919 42.127C34.0597 42.127 32.8906 43.2961 32.8906 44.7282C32.8906 46.1604 34.0597 47.3295 35.4919 47.3295Z" fill="#2654A5"/>
<path d="M40.6076 50.6916V52.6352C40.6076 52.8398 40.4469 52.9859 40.2569 52.9859H30.7433C30.5387 52.9859 30.3926 52.8252 30.3926 52.6352V50.6916C30.3926 49.5517 31.1525 48.6018 32.1901 48.2949C33.0523 49.1133 34.2214 49.6102 35.5074 49.6102C36.7934 49.6102 37.9625 49.1133 38.8247 48.2949C39.8477 48.6018 40.6076 49.5663 40.6076 50.6916Z" fill="#2654A5"/>
<path d="M23.1149 47.3295C24.5471 47.3295 25.7162 46.1604 25.7162 44.7282C25.7162 43.2961 24.5471 42.127 23.1149 42.127C21.6828 42.127 20.5137 43.2961 20.5137 44.7282C20.5137 46.1604 21.6828 47.3295 23.1149 47.3295Z" fill="#2654A5"/>
<path d="M28.2296 50.6916V52.6352C28.2296 52.8398 28.0689 52.9859 27.8789 52.9859H18.3507C18.1461 52.9859 18 52.8252 18 52.6352V50.6916C18 49.5517 18.7599 48.6018 19.7975 48.2949C20.6597 49.1133 21.8288 49.6102 23.1148 49.6102C24.4008 49.6102 25.5699 49.1133 26.4322 48.2949C27.4551 48.6018 28.2296 49.5663 28.2296 50.6916Z" fill="#2654A5"/>
<path d="M47.8845 47.3295C49.3166 47.3295 50.4857 46.1604 50.4857 44.7282C50.4857 43.2961 49.3166 42.127 47.8845 42.127C46.4523 42.127 45.2832 43.2961 45.2832 44.7282C45.2832 46.1604 46.4523 47.3295 47.8845 47.3295Z" fill="#2654A5"/>
<path d="M53.0002 50.6916V52.6352C53.0002 52.8398 52.8394 52.9859 52.6495 52.9859H43.1359C42.9313 52.9859 42.7852 52.8252 42.7852 52.6352V50.6916C42.7852 49.5517 43.5451 48.6018 44.5826 48.2949C45.4449 49.1133 46.614 49.6102 47.9 49.6102C49.186 49.6102 50.3551 49.1133 51.2173 48.2949C52.2403 48.6018 53.0002 49.5663 53.0002 50.6916Z" fill="#2654A5"/>
</g>
<defs>
<clipPath id="clip0_5762_541">
<rect width="35" height="35" fill="white" transform="translate(18 18)"/>
</clipPath>
</defs>
</svg>
