<svg width="70" height="70" viewBox="0 0 70 70" fill="none" xmlns="http://www.w3.org/2000/svg">
<circle cx="35" cy="35" r="34.5" fill="white" stroke="#C4C2C0"/>
<g clip-path="url(#clip0_5762_542)">
<path d="M41.0334 41.8906H40.8719C39.4323 43.1232 37.5961 43.8597 35.5836 43.8597C33.5711 43.8597 31.7202 43.1232 30.2953 41.8906H30.1337C28.0037 42.2363 26.3438 44.1453 26.3438 46.4601V52.3374C26.3438 52.7132 26.6229 52.9837 26.9754 52.9837H44.177C44.5296 52.9837 44.8234 52.6981 44.8234 52.3374V46.4601C44.8234 44.1453 43.1781 42.2363 41.0334 41.8906Z" fill="#2654A5"/>
<path d="M35.5835 40.5986C38.3598 40.5986 40.6221 38.2838 40.6221 35.4428C40.6221 32.6019 38.3598 30.2871 35.5835 30.2871C32.8071 30.2871 30.5449 32.6019 30.5449 35.4428C30.5449 38.2838 32.8071 40.5986 35.5835 40.5986Z" fill="#2654A5"/>
<path d="M53.0066 34.6165L51.4789 36.1347L51.8461 38.2842C51.8902 38.5096 51.802 38.7201 51.6258 38.8553C51.5229 38.9305 51.4054 38.9756 51.2879 38.9756C51.1998 38.9756 51.1116 38.9455 51.0235 38.9155L49.1285 37.8933L47.2482 38.9155C47.0573 39.0207 46.8222 39.0057 46.6459 38.8704C46.4697 38.7351 46.3815 38.5247 46.4256 38.2992L46.7928 36.1497L45.2651 34.6315C45.1182 34.4662 45.0595 34.2407 45.1182 34.0303C45.177 33.8199 45.3533 33.6695 45.5736 33.6395L47.6889 33.3238L48.6291 31.3698C48.7319 31.1743 48.9228 31.0391 49.1432 31.0391C49.3635 31.0391 49.5545 31.1593 49.6573 31.3698L50.5975 33.3238L52.7128 33.6395C52.9331 33.6695 53.1094 33.8199 53.1682 34.0303C53.2122 34.2257 53.1682 34.4512 53.0066 34.6165Z" fill="#2654A5"/>
<path d="M49.4217 25.1179L47.8939 26.636L48.2612 28.7855C48.3052 29.011 48.2171 29.2214 48.0408 29.3567C47.938 29.4319 47.8205 29.477 47.703 29.477C47.6148 29.477 47.5267 29.4469 47.4386 29.4168L45.5436 28.3947L43.6633 29.4168C43.4723 29.5221 43.2373 29.507 43.061 29.3717C42.8848 29.2365 42.7966 29.026 42.8407 28.8005L43.2079 26.6511L41.6655 25.1179C41.5186 24.9525 41.4599 24.7271 41.5186 24.5166C41.5774 24.3062 41.7536 24.1559 41.974 24.1258L44.0893 23.8102L45.0294 21.8561C45.1323 21.6607 45.3232 21.5254 45.5436 21.5254C45.7639 21.5254 45.9549 21.6456 46.0577 21.8561L46.9979 23.8102L49.1132 24.1258C49.3335 24.1559 49.5098 24.3062 49.5686 24.5166C49.6273 24.7421 49.5833 24.9676 49.4217 25.1179Z" fill="#2654A5"/>
<path d="M30.3553 25.1179L28.8275 26.6511L29.1948 28.8005C29.2388 29.026 29.1507 29.2365 28.9744 29.3717C28.8716 29.4319 28.7541 29.477 28.6366 29.477C28.5484 29.477 28.4603 29.4469 28.3722 29.4168L26.4772 28.3947L24.5969 29.4168C24.4059 29.5221 24.1709 29.507 23.9946 29.3717C23.8183 29.2365 23.7302 29.026 23.7743 28.8005L24.1415 26.6511L22.5991 25.1179C22.4522 24.9525 22.3934 24.7271 22.4522 24.5166C22.511 24.3062 22.6872 24.1559 22.9076 24.1258L25.0229 23.8102L25.963 21.8561C26.0659 21.6607 26.2568 21.5254 26.4772 21.5254C26.6975 21.5254 26.8885 21.6456 26.9913 21.8561L27.9315 23.8102L30.0468 24.1258C30.2671 24.1559 30.4434 24.3062 30.5022 24.5166C30.5756 24.7421 30.5168 24.9676 30.3553 25.1179Z" fill="#2654A5"/>
<path d="M39.6385 20.5925L38.1107 22.1106L38.478 24.2601C38.522 24.4856 38.4339 24.696 38.2576 24.8313C38.1548 24.9065 38.0373 24.9516 37.9198 24.9516C37.8316 24.9516 37.7435 24.9215 37.6554 24.8914L35.7604 23.8693L33.8654 24.8764C33.6744 24.9816 33.4394 24.9666 33.2631 24.8313C33.0869 24.696 32.9987 24.4856 33.0428 24.2601L33.41 22.1106L31.8823 20.5925C31.7354 20.4271 31.6766 20.2017 31.7354 19.9912C31.7942 19.7808 31.9704 19.6305 32.1908 19.6004L34.3061 19.2848L35.2462 17.3307C35.3491 17.1353 35.54 17 35.7604 17C35.9807 17 36.1717 17.1203 36.2745 17.3307L37.2147 19.2848L39.33 19.6004C39.5503 19.6305 39.7266 19.7808 39.7854 19.9912C39.8441 20.2017 39.8 20.4271 39.6385 20.5925Z" fill="#2654A5"/>
<path d="M25.9334 34.6159L24.4057 36.1341L24.7729 38.2836C24.817 38.509 24.7288 38.7195 24.5526 38.8548C24.4497 38.9299 24.3322 38.975 24.2147 38.975C24.1266 38.975 24.0384 38.9449 23.9503 38.9149L22.0553 37.8927L20.175 38.9149C19.9841 39.0201 19.749 39.0051 19.5727 38.8698C19.3965 38.7345 19.3083 38.5241 19.3524 38.2986L19.7196 36.1491L18.1772 34.6159C18.0303 34.4506 17.9716 34.2251 18.0303 34.0147C18.0891 33.8042 18.2654 33.6539 18.4857 33.6239L20.601 33.3082L21.5412 31.3541C21.644 31.1587 21.835 31.0234 22.0553 31.0234C22.2757 31.0234 22.4666 31.1437 22.5694 31.3541L23.5096 33.3082L25.6249 33.6239C25.8452 33.6539 26.0215 33.8042 26.0803 34.0147C26.139 34.2251 26.095 34.4506 25.9334 34.6159Z" fill="#2654A5"/>
</g>
<defs>
<clipPath id="clip0_5762_542">
<rect width="35.1818" height="36" fill="white" transform="translate(18 17)"/>
</clipPath>
</defs>
</svg>
