<svg width="34" height="34" viewBox="0 0 34 34" fill="none" xmlns="http://www.w3.org/2000/svg">
<circle cx="16.5" cy="17.4707" r="16.5" fill="white"/>
<path d="M20.5236 12.8028C20.7222 12.8037 20.9123 12.883 21.0526 13.0233C21.193 13.1637 21.2723 13.3538 21.2732 13.5523L21.2732 20.6234C21.2767 20.7241 21.26 20.8244 21.2239 20.9184C21.1878 21.0125 21.1332 21.0983 21.0632 21.1707C20.9933 21.2432 20.9095 21.3008 20.8168 21.3402C20.724 21.3796 20.6244 21.3999 20.5236 21.3999C20.4229 21.3999 20.3232 21.3796 20.2305 21.3402C20.1378 21.3008 20.054 21.2432 19.984 21.1707C19.9141 21.0983 19.8594 21.0125 19.8234 20.9184C19.7873 20.8244 19.7706 20.7241 19.7741 20.6234L19.7741 15.3625L12.5687 22.5679C12.428 22.7086 12.2373 22.7876 12.0384 22.7876C11.8394 22.7876 11.6487 22.7086 11.508 22.5679C11.3674 22.4273 11.2884 22.2365 11.2884 22.0376C11.2884 21.8387 11.3674 21.6479 11.508 21.5073L18.7134 14.3019H13.4526C13.2584 14.295 13.0744 14.213 12.9394 14.0732C12.8045 13.9334 12.729 13.7467 12.729 13.5523C12.729 13.358 12.8045 13.1713 12.9394 13.0314C13.0744 12.8916 13.2584 12.8097 13.4526 12.8028L20.5236 12.8028Z" fill="#132D4C"/>
</svg>
