<svg width="34" height="34" viewBox="0 0 34 34" fill="none" xmlns="http://www.w3.org/2000/svg">
<circle cx="16.5" cy="16.5" r="16.5" fill="#132D4C"/>
<path d="M21.2424 12.0079C21.4409 12.0088 21.631 12.088 21.7714 12.2284C21.9118 12.3688 21.991 12.5589 21.9919 12.7574L21.9919 19.8285C21.9955 19.9291 21.9787 20.0295 21.9427 20.1235C21.9066 20.2176 21.8519 20.3034 21.782 20.3758C21.712 20.4483 21.6282 20.5059 21.5355 20.5453C21.4428 20.5846 21.3431 20.6049 21.2424 20.6049C21.1417 20.6049 21.042 20.5846 20.9493 20.5453C20.8566 20.5059 20.7727 20.4483 20.7028 20.3758C20.6328 20.3034 20.5782 20.2176 20.5421 20.1235C20.5061 20.0295 20.4893 19.9291 20.4929 19.8285L20.4929 14.5676L13.2874 21.773C13.1468 21.9137 12.956 21.9927 12.7571 21.9927C12.5582 21.9927 12.3674 21.9137 12.2268 21.773C12.0861 21.6324 12.0071 21.4416 12.0071 21.2427C12.0071 21.0438 12.0861 20.853 12.2268 20.7124L19.4322 13.5069H14.1713C13.9771 13.5001 13.7931 13.4181 13.6582 13.2783C13.5232 13.1385 13.4478 12.9517 13.4478 12.7574C13.4478 12.5631 13.5232 12.3763 13.6582 12.2365C13.7931 12.0967 13.9771 12.0147 14.1713 12.0079L21.2424 12.0079Z" fill="white"/>
</svg>
