<svg width="32" height="32" viewBox="0 0 32 32" fill="none" xmlns="http://www.w3.org/2000/svg">
<g clip-path="url(#clip0_6264_584)">
<path d="M3.58424 16.431C2.77005 16.0176 2.85861 14.8275 3.72484 14.5385L20.9267 8.80198C21.7309 8.53435 22.4956 9.29909 22.2277 10.1029L16.4915 27.3051C16.2025 28.1714 15.0121 28.2596 14.599 27.4457L10.8874 20.1419L3.58424 16.431ZM12.0103 19.8277L15.4937 26.6842L21.0712 9.95879L4.34543 15.536L11.2019 19.02L16.646 13.576C16.7531 13.4688 16.8984 13.4086 17.05 13.4086C17.2015 13.4086 17.3469 13.4688 17.454 13.576C17.5612 13.6831 17.6214 13.8285 17.6214 13.98C17.6214 14.1315 17.5612 14.2769 17.454 14.384L12.0103 19.8277Z" fill="black"/>
</g>
<defs>
<clipPath id="clip0_6264_584">
<rect width="21.941" height="21.941" fill="white" transform="translate(0 15.5146) rotate(-45)"/>
</clipPath>
</defs>
</svg>
